<mxfile host="app.diagrams.net" modified="2024-06-03T06:17:51.827Z" agent="Mozilla/5.0 (Windows NT 10.0; Win64; x64) AppleWebKit/537.36 (KHTML, like Gecko) Chrome/125.0.0.0 Safari/537.36" etag="RHS7P26caCdYhCUIAs1k" version="24.4.13" type="device">
  <diagram name="第 1 页" id="426w8ndumdTjLOu1qbh_">
    <mxGraphModel dx="2064" dy="883" grid="1" gridSize="10" guides="1" tooltips="1" connect="1" arrows="1" fold="1" page="1" pageScale="1" pageWidth="827" pageHeight="1169" math="0" shadow="0">
      <root>
        <mxCell id="0" />
        <mxCell id="1" parent="0" />
        <mxCell id="klxmzzw3CdP3YXhZk6Qu-1" style="edgeStyle=orthogonalEdgeStyle;rounded=0;orthogonalLoop=1;jettySize=auto;html=1;entryX=0.5;entryY=0;entryDx=0;entryDy=0;" parent="1" source="klxmzzw3CdP3YXhZk6Qu-2" target="klxmzzw3CdP3YXhZk6Qu-7" edge="1">
          <mxGeometry relative="1" as="geometry" />
        </mxCell>
        <mxCell id="klxmzzw3CdP3YXhZk6Qu-2" value="Start Main" style="rounded=1;whiteSpace=wrap;html=1;arcSize=50;" parent="1" vertex="1">
          <mxGeometry x="100" y="41" width="120" height="60" as="geometry" />
        </mxCell>
        <mxCell id="klxmzzw3CdP3YXhZk6Qu-38" value="" style="edgeStyle=orthogonalEdgeStyle;rounded=0;orthogonalLoop=1;jettySize=auto;html=1;" parent="1" source="klxmzzw3CdP3YXhZk6Qu-7" target="klxmzzw3CdP3YXhZk6Qu-10" edge="1">
          <mxGeometry relative="1" as="geometry" />
        </mxCell>
        <mxCell id="klxmzzw3CdP3YXhZk6Qu-7" value="Input file name" style="shape=parallelogram;perimeter=parallelogramPerimeter;whiteSpace=wrap;html=1;fixedSize=1;" parent="1" vertex="1">
          <mxGeometry x="100" y="160" width="120" height="60" as="geometry" />
        </mxCell>
        <mxCell id="klxmzzw3CdP3YXhZk6Qu-25" value="" style="edgeStyle=orthogonalEdgeStyle;rounded=0;orthogonalLoop=1;jettySize=auto;html=1;" parent="1" source="klxmzzw3CdP3YXhZk6Qu-10" target="klxmzzw3CdP3YXhZk6Qu-24" edge="1">
          <mxGeometry relative="1" as="geometry" />
        </mxCell>
        <mxCell id="klxmzzw3CdP3YXhZk6Qu-10" value="splitData" style="shape=process;whiteSpace=wrap;html=1;backgroundOutline=1;" parent="1" vertex="1">
          <mxGeometry x="100" y="260" width="120" height="60" as="geometry" />
        </mxCell>
        <mxCell id="klxmzzw3CdP3YXhZk6Qu-12" value="End Main" style="rounded=1;whiteSpace=wrap;html=1;" parent="1" vertex="1">
          <mxGeometry x="100" y="460" width="120" height="60" as="geometry" />
        </mxCell>
        <mxCell id="I9_8YW3mxnAw5388rxwz-3" style="edgeStyle=orthogonalEdgeStyle;rounded=0;orthogonalLoop=1;jettySize=auto;html=1;exitX=0.5;exitY=1;exitDx=0;exitDy=0;entryX=0.5;entryY=0;entryDx=0;entryDy=0;" edge="1" parent="1" source="klxmzzw3CdP3YXhZk6Qu-14" target="I9_8YW3mxnAw5388rxwz-1">
          <mxGeometry relative="1" as="geometry" />
        </mxCell>
        <mxCell id="klxmzzw3CdP3YXhZk6Qu-14" value="Start splitData" style="rounded=1;whiteSpace=wrap;html=1;arcSize=50;" parent="1" vertex="1">
          <mxGeometry x="391" y="41" width="120" height="60" as="geometry" />
        </mxCell>
        <mxCell id="klxmzzw3CdP3YXhZk6Qu-17" value="End splitData" style="rounded=1;whiteSpace=wrap;html=1;" parent="1" vertex="1">
          <mxGeometry x="391" y="760" width="120" height="60" as="geometry" />
        </mxCell>
        <mxCell id="klxmzzw3CdP3YXhZk6Qu-20" value="Case 1, External Sort" style="edgeLabel;html=1;align=center;verticalAlign=middle;resizable=0;points=[];" parent="1" vertex="1" connectable="0">
          <mxGeometry x="160" y="121" as="geometry" />
        </mxCell>
        <mxCell id="klxmzzw3CdP3YXhZk6Qu-21" style="edgeStyle=orthogonalEdgeStyle;rounded=0;orthogonalLoop=1;jettySize=auto;html=1;exitX=1;exitY=0.5;exitDx=0;exitDy=0;entryX=0.5;entryY=0;entryDx=0;entryDy=0;" parent="1" source="klxmzzw3CdP3YXhZk6Qu-7" target="klxmzzw3CdP3YXhZk6Qu-7" edge="1">
          <mxGeometry relative="1" as="geometry">
            <Array as="points">
              <mxPoint x="250" y="190" />
              <mxPoint x="250" y="140" />
              <mxPoint x="160" y="140" />
            </Array>
          </mxGeometry>
        </mxCell>
        <mxCell id="klxmzzw3CdP3YXhZk6Qu-22" value="file not exists" style="edgeLabel;html=1;align=center;verticalAlign=middle;resizable=0;points=[];" parent="1" vertex="1" connectable="0">
          <mxGeometry x="256" y="169" as="geometry" />
        </mxCell>
        <mxCell id="klxmzzw3CdP3YXhZk6Qu-26" value="" style="edgeStyle=orthogonalEdgeStyle;rounded=0;orthogonalLoop=1;jettySize=auto;html=1;" parent="1" source="klxmzzw3CdP3YXhZk6Qu-24" target="klxmzzw3CdP3YXhZk6Qu-12" edge="1">
          <mxGeometry relative="1" as="geometry" />
        </mxCell>
        <mxCell id="klxmzzw3CdP3YXhZk6Qu-24" value="mergeFile" style="shape=process;whiteSpace=wrap;html=1;backgroundOutline=1;" parent="1" vertex="1">
          <mxGeometry x="100" y="360" width="120" height="60" as="geometry" />
        </mxCell>
        <mxCell id="iQ1gvFv_g4WLFv94coC0-54" value="" style="edgeStyle=orthogonalEdgeStyle;rounded=0;orthogonalLoop=1;jettySize=auto;html=1;" parent="1" source="klxmzzw3CdP3YXhZk6Qu-31" target="iQ1gvFv_g4WLFv94coC0-22" edge="1">
          <mxGeometry relative="1" as="geometry" />
        </mxCell>
        <mxCell id="klxmzzw3CdP3YXhZk6Qu-31" value="Start mergeFile" style="rounded=1;whiteSpace=wrap;html=1;arcSize=50;" parent="1" vertex="1">
          <mxGeometry x="745.64" y="41" width="120" height="60" as="geometry" />
        </mxCell>
        <mxCell id="klxmzzw3CdP3YXhZk6Qu-34" value="End mergeFile" style="rounded=1;whiteSpace=wrap;html=1;" parent="1" vertex="1">
          <mxGeometry x="744.5" y="540" width="120" height="60" as="geometry" />
        </mxCell>
        <mxCell id="klxmzzw3CdP3YXhZk6Qu-47" style="edgeStyle=orthogonalEdgeStyle;rounded=0;orthogonalLoop=1;jettySize=auto;html=1;exitX=1;exitY=0.5;exitDx=0;exitDy=0;entryX=1;entryY=0.5;entryDx=0;entryDy=0;" parent="1" source="klxmzzw3CdP3YXhZk6Qu-42" target="klxmzzw3CdP3YXhZk6Qu-43" edge="1">
          <mxGeometry relative="1" as="geometry">
            <Array as="points">
              <mxPoint x="571" y="280" />
              <mxPoint x="571" y="685" />
            </Array>
          </mxGeometry>
        </mxCell>
        <mxCell id="klxmzzw3CdP3YXhZk6Qu-48" value="&lt;span style=&quot;font-size: 12px;&quot;&gt;There is no split&lt;/span&gt;" style="edgeLabel;html=1;align=center;verticalAlign=middle;resizable=0;points=[];" parent="klxmzzw3CdP3YXhZk6Qu-47" vertex="1" connectable="0">
          <mxGeometry x="-0.3728" y="-3" relative="1" as="geometry">
            <mxPoint y="-48" as="offset" />
          </mxGeometry>
        </mxCell>
        <mxCell id="klxmzzw3CdP3YXhZk6Qu-51" value="" style="edgeStyle=orthogonalEdgeStyle;rounded=0;orthogonalLoop=1;jettySize=auto;html=1;" parent="1" source="klxmzzw3CdP3YXhZk6Qu-42" target="klxmzzw3CdP3YXhZk6Qu-50" edge="1">
          <mxGeometry relative="1" as="geometry" />
        </mxCell>
        <mxCell id="klxmzzw3CdP3YXhZk6Qu-42" value="for all split" style="shape=trapezoid;perimeter=trapezoidPerimeter;whiteSpace=wrap;html=1;fixedSize=1;" parent="1" vertex="1">
          <mxGeometry x="390.99999999999994" y="250" width="120" height="60" as="geometry" />
        </mxCell>
        <mxCell id="klxmzzw3CdP3YXhZk6Qu-46" value="" style="edgeStyle=orthogonalEdgeStyle;rounded=0;orthogonalLoop=1;jettySize=auto;html=1;" parent="1" source="klxmzzw3CdP3YXhZk6Qu-43" target="klxmzzw3CdP3YXhZk6Qu-17" edge="1">
          <mxGeometry relative="1" as="geometry" />
        </mxCell>
        <mxCell id="klxmzzw3CdP3YXhZk6Qu-49" style="edgeStyle=orthogonalEdgeStyle;rounded=0;orthogonalLoop=1;jettySize=auto;html=1;exitX=0;exitY=0.5;exitDx=0;exitDy=0;entryX=0;entryY=0.5;entryDx=0;entryDy=0;" parent="1" source="klxmzzw3CdP3YXhZk6Qu-43" target="klxmzzw3CdP3YXhZk6Qu-42" edge="1">
          <mxGeometry relative="1" as="geometry">
            <Array as="points">
              <mxPoint x="331" y="685" />
              <mxPoint x="331" y="280" />
            </Array>
          </mxGeometry>
        </mxCell>
        <mxCell id="klxmzzw3CdP3YXhZk6Qu-43" value="end for all split" style="shape=trapezoid;perimeter=trapezoidPerimeter;whiteSpace=wrap;fixedSize=1;rotation=0;verticalAlign=middle;horizontal=1;html=1;flipV=1;" parent="1" vertex="1">
          <mxGeometry x="390.99999999999994" y="650" width="120" height="70" as="geometry" />
        </mxCell>
        <mxCell id="klxmzzw3CdP3YXhZk6Qu-53" value="" style="edgeStyle=orthogonalEdgeStyle;rounded=0;orthogonalLoop=1;jettySize=auto;html=1;" parent="1" source="klxmzzw3CdP3YXhZk6Qu-50" target="klxmzzw3CdP3YXhZk6Qu-52" edge="1">
          <mxGeometry relative="1" as="geometry" />
        </mxCell>
        <mxCell id="klxmzzw3CdP3YXhZk6Qu-50" value="資料加入向量" style="rounded=0;whiteSpace=wrap;html=1;" parent="1" vertex="1">
          <mxGeometry x="386.5" y="350" width="129" height="60" as="geometry" />
        </mxCell>
        <mxCell id="klxmzzw3CdP3YXhZk6Qu-56" value="" style="edgeStyle=orthogonalEdgeStyle;rounded=0;orthogonalLoop=1;jettySize=auto;html=1;" parent="1" source="klxmzzw3CdP3YXhZk6Qu-52" target="klxmzzw3CdP3YXhZk6Qu-55" edge="1">
          <mxGeometry relative="1" as="geometry" />
        </mxCell>
        <mxCell id="klxmzzw3CdP3YXhZk6Qu-52" value="將向量中的資料排序" style="rounded=0;whiteSpace=wrap;html=1;" parent="1" vertex="1">
          <mxGeometry x="386.5" y="450" width="129" height="60" as="geometry" />
        </mxCell>
        <mxCell id="klxmzzw3CdP3YXhZk6Qu-57" value="" style="edgeStyle=orthogonalEdgeStyle;rounded=0;orthogonalLoop=1;jettySize=auto;html=1;" parent="1" source="klxmzzw3CdP3YXhZk6Qu-55" target="klxmzzw3CdP3YXhZk6Qu-43" edge="1">
          <mxGeometry relative="1" as="geometry" />
        </mxCell>
        <mxCell id="klxmzzw3CdP3YXhZk6Qu-55" value="寫入臨時檔案" style="rounded=0;whiteSpace=wrap;html=1;" parent="1" vertex="1">
          <mxGeometry x="386.5" y="550" width="129" height="60" as="geometry" />
        </mxCell>
        <mxCell id="iQ1gvFv_g4WLFv94coC0-34" value="" style="edgeStyle=orthogonalEdgeStyle;rounded=0;orthogonalLoop=1;jettySize=auto;html=1;" parent="1" source="iQ1gvFv_g4WLFv94coC0-22" target="iQ1gvFv_g4WLFv94coC0-33" edge="1">
          <mxGeometry relative="1" as="geometry" />
        </mxCell>
        <mxCell id="iQ1gvFv_g4WLFv94coC0-38" value="No" style="edgeLabel;html=1;align=center;verticalAlign=middle;resizable=0;points=[];" parent="iQ1gvFv_g4WLFv94coC0-34" vertex="1" connectable="0">
          <mxGeometry x="-0.3181" y="-2" relative="1" as="geometry">
            <mxPoint y="-1" as="offset" />
          </mxGeometry>
        </mxCell>
        <mxCell id="iQ1gvFv_g4WLFv94coC0-40" value="" style="edgeStyle=orthogonalEdgeStyle;rounded=0;orthogonalLoop=1;jettySize=auto;html=1;" parent="1" source="iQ1gvFv_g4WLFv94coC0-22" target="iQ1gvFv_g4WLFv94coC0-39" edge="1">
          <mxGeometry relative="1" as="geometry" />
        </mxCell>
        <mxCell id="iQ1gvFv_g4WLFv94coC0-41" value="Yes" style="edgeLabel;html=1;align=center;verticalAlign=middle;resizable=0;points=[];" parent="iQ1gvFv_g4WLFv94coC0-40" vertex="1" connectable="0">
          <mxGeometry x="-0.0172" y="1" relative="1" as="geometry">
            <mxPoint x="1" as="offset" />
          </mxGeometry>
        </mxCell>
        <mxCell id="iQ1gvFv_g4WLFv94coC0-22" value="檔案全部合併?" style="rhombus;whiteSpace=wrap;html=1;" parent="1" vertex="1">
          <mxGeometry x="740" y="160" width="131.28" height="100" as="geometry" />
        </mxCell>
        <mxCell id="iQ1gvFv_g4WLFv94coC0-37" value="" style="edgeStyle=orthogonalEdgeStyle;rounded=0;orthogonalLoop=1;jettySize=auto;html=1;" parent="1" source="iQ1gvFv_g4WLFv94coC0-28" target="iQ1gvFv_g4WLFv94coC0-36" edge="1">
          <mxGeometry relative="1" as="geometry" />
        </mxCell>
        <mxCell id="iQ1gvFv_g4WLFv94coC0-28" value="twoWayMergeFile" style="shape=process;whiteSpace=wrap;html=1;backgroundOutline=1;" parent="1" vertex="1">
          <mxGeometry x="1141.14" y="290" width="140" height="60" as="geometry" />
        </mxCell>
        <mxCell id="iQ1gvFv_g4WLFv94coC0-31" value="" style="edgeStyle=orthogonalEdgeStyle;rounded=0;orthogonalLoop=1;jettySize=auto;html=1;" parent="1" source="iQ1gvFv_g4WLFv94coC0-29" target="iQ1gvFv_g4WLFv94coC0-28" edge="1">
          <mxGeometry relative="1" as="geometry" />
        </mxCell>
        <mxCell id="iQ1gvFv_g4WLFv94coC0-49" style="edgeStyle=orthogonalEdgeStyle;rounded=0;orthogonalLoop=1;jettySize=auto;html=1;exitX=1;exitY=0.5;exitDx=0;exitDy=0;entryX=1;entryY=0.5;entryDx=0;entryDy=0;" parent="1" source="iQ1gvFv_g4WLFv94coC0-29" target="iQ1gvFv_g4WLFv94coC0-43" edge="1">
          <mxGeometry relative="1" as="geometry">
            <Array as="points">
              <mxPoint x="1321.14" y="210" />
              <mxPoint x="1321.14" y="555" />
            </Array>
          </mxGeometry>
        </mxCell>
        <mxCell id="iQ1gvFv_g4WLFv94coC0-29" value="每兩個 split" style="shape=trapezoid;perimeter=trapezoidPerimeter;whiteSpace=wrap;html=1;fixedSize=1;" parent="1" vertex="1">
          <mxGeometry x="1151.14" y="180" width="120" height="60" as="geometry" />
        </mxCell>
        <mxCell id="iQ1gvFv_g4WLFv94coC0-35" value="" style="edgeStyle=orthogonalEdgeStyle;rounded=0;orthogonalLoop=1;jettySize=auto;html=1;" parent="1" source="iQ1gvFv_g4WLFv94coC0-33" target="iQ1gvFv_g4WLFv94coC0-29" edge="1">
          <mxGeometry relative="1" as="geometry" />
        </mxCell>
        <mxCell id="iQ1gvFv_g4WLFv94coC0-33" value="初始化&lt;div&gt;&lt;span style=&quot;background-color: initial;&quot;&gt;new_file_name向量&lt;/span&gt;&lt;/div&gt;" style="rounded=0;whiteSpace=wrap;html=1;" parent="1" vertex="1">
          <mxGeometry x="941.14" y="180" width="129" height="60" as="geometry" />
        </mxCell>
        <mxCell id="iQ1gvFv_g4WLFv94coC0-44" value="" style="edgeStyle=orthogonalEdgeStyle;rounded=0;orthogonalLoop=1;jettySize=auto;html=1;" parent="1" source="iQ1gvFv_g4WLFv94coC0-36" target="iQ1gvFv_g4WLFv94coC0-43" edge="1">
          <mxGeometry relative="1" as="geometry" />
        </mxCell>
        <mxCell id="iQ1gvFv_g4WLFv94coC0-36" value="刪除已合併的臨時檔案" style="rounded=0;whiteSpace=wrap;html=1;" parent="1" vertex="1">
          <mxGeometry x="1146.64" y="404.5" width="129" height="60" as="geometry" />
        </mxCell>
        <mxCell id="iQ1gvFv_g4WLFv94coC0-57" value="" style="edgeStyle=orthogonalEdgeStyle;rounded=0;orthogonalLoop=1;jettySize=auto;html=1;" parent="1" source="iQ1gvFv_g4WLFv94coC0-39" target="iQ1gvFv_g4WLFv94coC0-56" edge="1">
          <mxGeometry relative="1" as="geometry" />
        </mxCell>
        <mxCell id="iQ1gvFv_g4WLFv94coC0-39" value="最終檔案重新命名" style="rounded=0;whiteSpace=wrap;html=1;" parent="1" vertex="1">
          <mxGeometry x="740" y="320" width="129" height="60" as="geometry" />
        </mxCell>
        <mxCell id="iQ1gvFv_g4WLFv94coC0-48" style="edgeStyle=orthogonalEdgeStyle;rounded=0;orthogonalLoop=1;jettySize=auto;html=1;exitX=0;exitY=0.5;exitDx=0;exitDy=0;entryX=0;entryY=0.5;entryDx=0;entryDy=0;" parent="1" source="iQ1gvFv_g4WLFv94coC0-43" target="iQ1gvFv_g4WLFv94coC0-29" edge="1">
          <mxGeometry relative="1" as="geometry">
            <Array as="points">
              <mxPoint x="1111.14" y="555" />
              <mxPoint x="1111.14" y="210" />
            </Array>
          </mxGeometry>
        </mxCell>
        <mxCell id="iQ1gvFv_g4WLFv94coC0-51" value="" style="edgeStyle=orthogonalEdgeStyle;rounded=0;orthogonalLoop=1;jettySize=auto;html=1;" parent="1" source="iQ1gvFv_g4WLFv94coC0-43" edge="1">
          <mxGeometry relative="1" as="geometry">
            <mxPoint x="1211.14" y="640" as="targetPoint" />
            <Array as="points">
              <mxPoint x="1211" y="640" />
              <mxPoint x="1211" y="640" />
            </Array>
          </mxGeometry>
        </mxCell>
        <mxCell id="iQ1gvFv_g4WLFv94coC0-43" value="end" style="shape=trapezoid;perimeter=trapezoidPerimeter;whiteSpace=wrap;fixedSize=1;rotation=0;verticalAlign=middle;horizontal=1;html=1;flipV=1;" parent="1" vertex="1">
          <mxGeometry x="1151.14" y="520" width="120" height="70" as="geometry" />
        </mxCell>
        <mxCell id="iQ1gvFv_g4WLFv94coC0-55" style="edgeStyle=orthogonalEdgeStyle;rounded=0;orthogonalLoop=1;jettySize=auto;html=1;exitX=1;exitY=0.5;exitDx=0;exitDy=0;entryX=0.5;entryY=0;entryDx=0;entryDy=0;" parent="1" source="iQ1gvFv_g4WLFv94coC0-50" target="iQ1gvFv_g4WLFv94coC0-22" edge="1">
          <mxGeometry relative="1" as="geometry">
            <Array as="points">
              <mxPoint x="1401.14" y="670" />
              <mxPoint x="1401.14" y="130" />
              <mxPoint x="806.14" y="130" />
            </Array>
          </mxGeometry>
        </mxCell>
        <mxCell id="iQ1gvFv_g4WLFv94coC0-50" value="更新檔案名稱到new_file_name" style="rounded=0;whiteSpace=wrap;html=1;" parent="1" vertex="1">
          <mxGeometry x="1146.64" y="640" width="129" height="60" as="geometry" />
        </mxCell>
        <mxCell id="iQ1gvFv_g4WLFv94coC0-58" value="" style="edgeStyle=orthogonalEdgeStyle;rounded=0;orthogonalLoop=1;jettySize=auto;html=1;" parent="1" source="iQ1gvFv_g4WLFv94coC0-56" target="klxmzzw3CdP3YXhZk6Qu-34" edge="1">
          <mxGeometry relative="1" as="geometry" />
        </mxCell>
        <mxCell id="iQ1gvFv_g4WLFv94coC0-56" value="刪除所有臨時檔案" style="rounded=0;whiteSpace=wrap;html=1;" parent="1" vertex="1">
          <mxGeometry x="740" y="430" width="129" height="60" as="geometry" />
        </mxCell>
        <mxCell id="iQ1gvFv_g4WLFv94coC0-62" value="" style="edgeStyle=orthogonalEdgeStyle;rounded=0;orthogonalLoop=1;jettySize=auto;html=1;" parent="1" source="iQ1gvFv_g4WLFv94coC0-60" target="iQ1gvFv_g4WLFv94coC0-61" edge="1">
          <mxGeometry relative="1" as="geometry" />
        </mxCell>
        <mxCell id="iQ1gvFv_g4WLFv94coC0-60" value="&lt;font style=&quot;font-size: 14px;&quot;&gt;twoWayMergeFile&amp;nbsp; function&lt;/font&gt;" style="rounded=1;whiteSpace=wrap;html=1;arcSize=50;" parent="1" vertex="1">
          <mxGeometry x="1679" y="41" width="191" height="60" as="geometry" />
        </mxCell>
        <mxCell id="iQ1gvFv_g4WLFv94coC0-68" value="" style="edgeStyle=orthogonalEdgeStyle;rounded=0;orthogonalLoop=1;jettySize=auto;html=1;" parent="1" source="iQ1gvFv_g4WLFv94coC0-61" target="iQ1gvFv_g4WLFv94coC0-67" edge="1">
          <mxGeometry relative="1" as="geometry" />
        </mxCell>
        <mxCell id="iQ1gvFv_g4WLFv94coC0-61" value="&lt;font style=&quot;font-size: 14px;&quot;&gt;打開左右檔案&lt;/font&gt;&lt;div&gt;&lt;font size=&quot;3&quot;&gt;以二進位型式讀取&lt;/font&gt;&lt;/div&gt;" style="rounded=0;whiteSpace=wrap;html=1;" parent="1" vertex="1">
          <mxGeometry x="1689.5" y="139" width="170" height="60" as="geometry" />
        </mxCell>
        <mxCell id="iQ1gvFv_g4WLFv94coC0-91" value="" style="edgeStyle=orthogonalEdgeStyle;rounded=0;orthogonalLoop=1;jettySize=auto;html=1;" parent="1" source="iQ1gvFv_g4WLFv94coC0-63" target="iQ1gvFv_g4WLFv94coC0-90" edge="1">
          <mxGeometry relative="1" as="geometry" />
        </mxCell>
        <mxCell id="iQ1gvFv_g4WLFv94coC0-63" value="&lt;font style=&quot;font-size: 14px;&quot;&gt;左右各讀取一批資料&lt;/font&gt;" style="rounded=0;whiteSpace=wrap;html=1;" parent="1" vertex="1">
          <mxGeometry x="1689.5" y="344.5" width="170" height="60" as="geometry" />
        </mxCell>
        <mxCell id="iQ1gvFv_g4WLFv94coC0-69" value="" style="edgeStyle=orthogonalEdgeStyle;rounded=0;orthogonalLoop=1;jettySize=auto;html=1;" parent="1" source="iQ1gvFv_g4WLFv94coC0-67" target="iQ1gvFv_g4WLFv94coC0-63" edge="1">
          <mxGeometry relative="1" as="geometry" />
        </mxCell>
        <mxCell id="iQ1gvFv_g4WLFv94coC0-67" value="&lt;font style=&quot;font-size: 14px;&quot;&gt;打開臨時檔案&lt;/font&gt;&lt;div&gt;&lt;font size=&quot;3&quot;&gt;以二進位型式寫入&lt;/font&gt;&lt;/div&gt;" style="rounded=0;whiteSpace=wrap;html=1;" parent="1" vertex="1">
          <mxGeometry x="1689.5" y="240" width="170" height="60" as="geometry" />
        </mxCell>
        <mxCell id="iQ1gvFv_g4WLFv94coC0-100" style="edgeStyle=orthogonalEdgeStyle;rounded=0;orthogonalLoop=1;jettySize=auto;html=1;exitX=1;exitY=0.5;exitDx=0;exitDy=0;entryX=0.5;entryY=0;entryDx=0;entryDy=0;" parent="1" source="iQ1gvFv_g4WLFv94coC0-73" target="iQ1gvFv_g4WLFv94coC0-99" edge="1">
          <mxGeometry relative="1" as="geometry" />
        </mxCell>
        <mxCell id="iQ1gvFv_g4WLFv94coC0-101" value="&lt;font style=&quot;font-size: 14px;&quot;&gt;Yes&lt;/font&gt;" style="edgeLabel;html=1;align=center;verticalAlign=middle;resizable=0;points=[];" parent="iQ1gvFv_g4WLFv94coC0-100" vertex="1" connectable="0">
          <mxGeometry x="-0.6078" y="2" relative="1" as="geometry">
            <mxPoint x="2" y="2" as="offset" />
          </mxGeometry>
        </mxCell>
        <mxCell id="iQ1gvFv_g4WLFv94coC0-103" style="edgeStyle=orthogonalEdgeStyle;rounded=0;orthogonalLoop=1;jettySize=auto;html=1;exitX=0;exitY=0.5;exitDx=0;exitDy=0;entryX=0.5;entryY=0;entryDx=0;entryDy=0;" parent="1" source="iQ1gvFv_g4WLFv94coC0-73" target="iQ1gvFv_g4WLFv94coC0-102" edge="1">
          <mxGeometry relative="1" as="geometry" />
        </mxCell>
        <mxCell id="iQ1gvFv_g4WLFv94coC0-104" value="&lt;font style=&quot;font-size: 14px;&quot;&gt;No&lt;/font&gt;" style="edgeLabel;html=1;align=center;verticalAlign=middle;resizable=0;points=[];" parent="iQ1gvFv_g4WLFv94coC0-103" vertex="1" connectable="0">
          <mxGeometry x="-0.6295" y="-2" relative="1" as="geometry">
            <mxPoint x="5" y="2" as="offset" />
          </mxGeometry>
        </mxCell>
        <mxCell id="iQ1gvFv_g4WLFv94coC0-73" value="&lt;font style=&quot;font-size: 14px;&quot;&gt;左邊量權較大&lt;/font&gt;" style="rhombus;whiteSpace=wrap;html=1;" parent="1" vertex="1">
          <mxGeometry x="1708.5000000000002" y="545.5" width="131.28" height="100" as="geometry" />
        </mxCell>
        <mxCell id="iQ1gvFv_g4WLFv94coC0-95" style="edgeStyle=orthogonalEdgeStyle;rounded=0;orthogonalLoop=1;jettySize=auto;html=1;exitX=0;exitY=0.5;exitDx=0;exitDy=0;entryX=0;entryY=0.5;entryDx=0;entryDy=0;" parent="1" source="iQ1gvFv_g4WLFv94coC0-86" target="iQ1gvFv_g4WLFv94coC0-90" edge="1">
          <mxGeometry relative="1" as="geometry">
            <Array as="points">
              <mxPoint x="1510" y="895" />
              <mxPoint x="1510" y="470" />
            </Array>
          </mxGeometry>
        </mxCell>
        <mxCell id="iQ1gvFv_g4WLFv94coC0-113" value="" style="edgeStyle=orthogonalEdgeStyle;rounded=0;orthogonalLoop=1;jettySize=auto;html=1;" parent="1" source="iQ1gvFv_g4WLFv94coC0-86" target="iQ1gvFv_g4WLFv94coC0-112" edge="1">
          <mxGeometry relative="1" as="geometry" />
        </mxCell>
        <mxCell id="iQ1gvFv_g4WLFv94coC0-86" value="&lt;font style=&quot;font-size: 14px;&quot;&gt;end&lt;/font&gt;" style="shape=trapezoid;perimeter=trapezoidPerimeter;whiteSpace=wrap;fixedSize=1;rotation=0;verticalAlign=middle;horizontal=1;html=1;flipV=1;" parent="1" vertex="1">
          <mxGeometry x="1719.78" y="860" width="120" height="70" as="geometry" />
        </mxCell>
        <mxCell id="iQ1gvFv_g4WLFv94coC0-96" style="edgeStyle=orthogonalEdgeStyle;rounded=0;orthogonalLoop=1;jettySize=auto;html=1;exitX=1;exitY=0.5;exitDx=0;exitDy=0;entryX=1;entryY=0.5;entryDx=0;entryDy=0;" parent="1" source="iQ1gvFv_g4WLFv94coC0-90" target="iQ1gvFv_g4WLFv94coC0-86" edge="1">
          <mxGeometry relative="1" as="geometry">
            <Array as="points">
              <mxPoint x="2040" y="470" />
              <mxPoint x="2040" y="895" />
            </Array>
          </mxGeometry>
        </mxCell>
        <mxCell id="iQ1gvFv_g4WLFv94coC0-97" value="&lt;font style=&quot;font-size: 14px;&quot;&gt;左右都讀取完&lt;/font&gt;" style="edgeLabel;html=1;align=center;verticalAlign=middle;resizable=0;points=[];" parent="iQ1gvFv_g4WLFv94coC0-96" vertex="1" connectable="0">
          <mxGeometry x="-0.7819" y="5" relative="1" as="geometry">
            <mxPoint x="11" y="5" as="offset" />
          </mxGeometry>
        </mxCell>
        <mxCell id="iQ1gvFv_g4WLFv94coC0-98" value="" style="edgeStyle=orthogonalEdgeStyle;rounded=0;orthogonalLoop=1;jettySize=auto;html=1;" parent="1" source="iQ1gvFv_g4WLFv94coC0-90" target="iQ1gvFv_g4WLFv94coC0-73" edge="1">
          <mxGeometry relative="1" as="geometry" />
        </mxCell>
        <mxCell id="iQ1gvFv_g4WLFv94coC0-90" value="&lt;font style=&quot;font-size: 14px;&quot;&gt;所有資料&lt;/font&gt;" style="shape=trapezoid;perimeter=trapezoidPerimeter;whiteSpace=wrap;html=1;fixedSize=1;" parent="1" vertex="1">
          <mxGeometry x="1714.14" y="440" width="120" height="60" as="geometry" />
        </mxCell>
        <mxCell id="iQ1gvFv_g4WLFv94coC0-109" style="edgeStyle=orthogonalEdgeStyle;rounded=0;orthogonalLoop=1;jettySize=auto;html=1;exitX=0.5;exitY=1;exitDx=0;exitDy=0;entryX=0.5;entryY=0;entryDx=0;entryDy=0;" parent="1" source="iQ1gvFv_g4WLFv94coC0-99" target="iQ1gvFv_g4WLFv94coC0-86" edge="1">
          <mxGeometry relative="1" as="geometry" />
        </mxCell>
        <mxCell id="iQ1gvFv_g4WLFv94coC0-99" value="&lt;font style=&quot;font-size: 14px;&quot;&gt;左邊寫入臨時檔案&lt;/font&gt;" style="rounded=0;whiteSpace=wrap;html=1;" parent="1" vertex="1">
          <mxGeometry x="1870.7800000000002" y="660" width="129" height="60" as="geometry" />
        </mxCell>
        <mxCell id="iQ1gvFv_g4WLFv94coC0-108" style="edgeStyle=orthogonalEdgeStyle;rounded=0;orthogonalLoop=1;jettySize=auto;html=1;exitX=0.5;exitY=1;exitDx=0;exitDy=0;entryX=0.5;entryY=0;entryDx=0;entryDy=0;" parent="1" source="iQ1gvFv_g4WLFv94coC0-102" target="iQ1gvFv_g4WLFv94coC0-86" edge="1">
          <mxGeometry relative="1" as="geometry" />
        </mxCell>
        <mxCell id="iQ1gvFv_g4WLFv94coC0-110" value="&lt;font style=&quot;font-size: 14px;&quot;&gt;讀取右邊資料&lt;/font&gt;" style="edgeLabel;html=1;align=center;verticalAlign=middle;resizable=0;points=[];" parent="iQ1gvFv_g4WLFv94coC0-108" vertex="1" connectable="0">
          <mxGeometry x="-0.2047" y="-3" relative="1" as="geometry">
            <mxPoint x="22" y="-7" as="offset" />
          </mxGeometry>
        </mxCell>
        <mxCell id="iQ1gvFv_g4WLFv94coC0-102" value="&lt;font style=&quot;font-size: 14px;&quot;&gt;右邊寫入臨時檔案&lt;/font&gt;" style="rounded=0;whiteSpace=wrap;html=1;" parent="1" vertex="1">
          <mxGeometry x="1560.5" y="660" width="129" height="60" as="geometry" />
        </mxCell>
        <mxCell id="iQ1gvFv_g4WLFv94coC0-111" value="&lt;font style=&quot;font-size: 14px;&quot;&gt;讀取左邊資料&lt;/font&gt;" style="edgeLabel;html=1;align=center;verticalAlign=middle;resizable=0;points=[];" parent="1" vertex="1" connectable="0">
          <mxGeometry x="1870.7835241708947" y="786.9994117647061" as="geometry" />
        </mxCell>
        <mxCell id="iQ1gvFv_g4WLFv94coC0-115" value="" style="edgeStyle=orthogonalEdgeStyle;rounded=0;orthogonalLoop=1;jettySize=auto;html=1;" parent="1" source="iQ1gvFv_g4WLFv94coC0-112" target="iQ1gvFv_g4WLFv94coC0-114" edge="1">
          <mxGeometry relative="1" as="geometry" />
        </mxCell>
        <mxCell id="iQ1gvFv_g4WLFv94coC0-112" value="&lt;font style=&quot;font-size: 14px;&quot;&gt;處理剩餘資料&lt;/font&gt;" style="rounded=0;whiteSpace=wrap;html=1;" parent="1" vertex="1">
          <mxGeometry x="1715.28" y="970" width="129" height="60" as="geometry" />
        </mxCell>
        <mxCell id="iQ1gvFv_g4WLFv94coC0-117" value="" style="edgeStyle=orthogonalEdgeStyle;rounded=0;orthogonalLoop=1;jettySize=auto;html=1;" parent="1" source="iQ1gvFv_g4WLFv94coC0-114" target="iQ1gvFv_g4WLFv94coC0-116" edge="1">
          <mxGeometry relative="1" as="geometry" />
        </mxCell>
        <mxCell id="iQ1gvFv_g4WLFv94coC0-114" value="&lt;font style=&quot;font-size: 14px;&quot;&gt;關閉所有檔案&lt;/font&gt;" style="rounded=0;whiteSpace=wrap;html=1;" parent="1" vertex="1">
          <mxGeometry x="1715.2800000000002" y="1070" width="129" height="60" as="geometry" />
        </mxCell>
        <mxCell id="iQ1gvFv_g4WLFv94coC0-116" value="&lt;font style=&quot;font-size: 12px;&quot;&gt;End twoWayMergeFile&amp;nbsp; function&lt;/font&gt;" style="rounded=1;whiteSpace=wrap;html=1;arcSize=50;" parent="1" vertex="1">
          <mxGeometry x="1684.2800000000002" y="1169" width="191" height="60" as="geometry" />
        </mxCell>
        <mxCell id="9s4zQHbwy0UA87qogMQk-2" style="edgeStyle=orthogonalEdgeStyle;rounded=0;orthogonalLoop=1;jettySize=auto;html=1;exitX=0.5;exitY=1;exitDx=0;exitDy=0;" parent="1" source="iQ1gvFv_g4WLFv94coC0-114" target="iQ1gvFv_g4WLFv94coC0-114" edge="1">
          <mxGeometry relative="1" as="geometry" />
        </mxCell>
        <mxCell id="I9_8YW3mxnAw5388rxwz-2" style="edgeStyle=orthogonalEdgeStyle;rounded=0;orthogonalLoop=1;jettySize=auto;html=1;exitX=0.5;exitY=1;exitDx=0;exitDy=0;entryX=0.5;entryY=0;entryDx=0;entryDy=0;" edge="1" parent="1" source="I9_8YW3mxnAw5388rxwz-1" target="klxmzzw3CdP3YXhZk6Qu-42">
          <mxGeometry relative="1" as="geometry" />
        </mxCell>
        <mxCell id="I9_8YW3mxnAw5388rxwz-1" value="計算分裂的檔案數量" style="rounded=0;whiteSpace=wrap;html=1;" vertex="1" parent="1">
          <mxGeometry x="386.5" y="150" width="129" height="60" as="geometry" />
        </mxCell>
      </root>
    </mxGraphModel>
  </diagram>
</mxfile>
